<svg width="19" height="19" viewBox="0 0 19 19" fill="none" xmlns="http://www.w3.org/2000/svg">
<path d="M2.2098 4.19118H0L1.54686 5.09926V10.3382L3.02006 15.3676L3.16738 7.19485L5.67182 11.1765L4.93522 12.2941H6.85038L10.1651 6.91544C10.6081 6.25389 10.8633 5.88802 11.4173 5.30882C11.8581 4.75301 12.1528 4.46451 12.7432 3.98162C13.0103 3.77413 13.1784 3.72104 13.4798 3.63235C12.9169 3.5924 12.6075 3.58528 12.0802 3.63235C10.9575 4.05515 10.4008 4.43768 9.50214 5.30882L6.04012 10.3382L2.2098 4.19118Z" fill="white"/>
<path d="M10.828 7.19485L9.13384 9.5V14.739L7.80796 13.9007L7.21868 13.2022V14.1103L7.80796 14.9485L10.1651 17.4632L10.828 19V7.19485Z" fill="white"/>
<path d="M12.0802 15.7868V9.98897L12.5222 13.9007C12.6658 14.1862 12.773 14.3029 13.0378 14.3897L17.3101 11.1765C17.5676 10.9652 17.6147 10.8028 17.3101 10.3382C16.7182 9.93879 16.3787 9.76032 15.7632 9.5C14.2424 9.01051 13.6066 8.76137 13.0378 8.38235C12.7042 8.20252 12.5464 8.05955 12.3012 7.75368C12.1442 7.44107 12.1179 7.25294 12.0802 6.91544C12.0592 6.64054 12.0665 6.46364 12.0802 6.14706C12.1021 5.81637 12.1573 5.63307 12.3012 5.30882C12.6446 5.00849 12.8429 4.84531 13.2588 4.61029C13.5762 4.42935 13.7534 4.34186 14.0691 4.19118H15.7632L16.3525 4.40074L17.3101 4.88971C17.7558 4.76911 17.9139 4.64431 17.8257 4.19118H18.2677V7.75368H17.8257V6.91544L16.9418 5.58824L15.7632 4.88971H14.0691L13.2588 5.58824V6.42647L14.3637 7.40441L17.3101 8.38235C18.0018 8.81964 18.3376 9.12852 18.857 9.77941C19.0525 10.229 19.0428 10.473 18.857 10.8971L12.0802 15.7868Z" fill="white"/>
<path d="M5.81914 0L5.1562 0.0698529V7.19485H5.67182L6.04012 3.14338C6.13687 2.8932 6.25547 2.77248 6.55574 2.58456H9.13384V2.8923C9.13384 3.68881 10.0196 4.16564 10.6845 3.72703L10.828 3.63235V2.58456H13.4798C13.9641 2.86865 14.1709 3.08608 14.3637 3.63235L14.6583 3.77206V1.81618H6.55574C6.17566 1.68025 6.01028 1.54645 5.81914 1.1875V0Z" fill="white"/>
</svg>
